<svg xmlns="http://www.w3.org/2000/svg" xmlns:xlink="http://www.w3.org/1999/xlink" viewBox="0 0 120 120" width="120" height="120">
<defs>
  <linearGradient id="fur" x1="0" y1="0" x2="0.4" y2="1">
    <stop offset="0" stop-color="#a39bbd"/><stop offset="1" stop-color="#6a6385"/>
  </linearGradient>
  <linearGradient id="in" x1="0" y1="0" x2="0.3" y2="1">
    <stop offset="0" stop-color="#fce7f3"/><stop offset="1" stop-color="#f9a8d4"/>
  </linearGradient>
  
  <filter id="sh" x="-25%" y="-25%" width="150%" height="150%" color-interpolation-filters="sRGB">
    <feGaussianBlur in="SourceAlpha" stdDeviation="1.4"/>
    <feOffset dy="1.2" result="b"/>
    <feFlood flood-color="#1b1035" flood-opacity="0.4"/>
    <feComposite in2="b" operator="in"/>
    <feMerge><feMergeNode/><feMergeNode in="SourceGraphic"/></feMerge>
  </filter>
  <g id="ear">
    <path d="M19.33,37.46 C14.5,27 10,15.5 11,8.5 C11.6,4 15.2,2.6 19.4,4.3 C29,8.3 38.5,11.2 47.18,15.3 A46.5,46.5 0 0,0 19.33,37.46Z" fill="url(#fur)" stroke="#4d4766" stroke-width="1.3" stroke-linejoin="round"/>
    <path d="M23.5,30.5 C20,23.5 17.4,15.6 17.7,10.6 C24.6,12.6 31.4,15.2 37.4,18.6 C31.4,20.8 26.6,25 23.5,30.5Z" fill="url(#in)"/>
    <path d="M14.2,9 C15,6.6 17,6 19.5,7" fill="none" stroke="#ffffff" stroke-width="1.4" stroke-linecap="round" opacity="0.55"/>
  </g>
</defs>
<g filter="url(#sh)">
  <use href="#ear" xlink:href="#ear"/>
  <use href="#ear" xlink:href="#ear" transform="translate(120,0) scale(-1,1)"/>
</g>
</svg>
