<svg xmlns="http://www.w3.org/2000/svg" xmlns:xlink="http://www.w3.org/1999/xlink" viewBox="0 0 120 120" width="120" height="120">
<path d="M24.23,22.95 A51.5,51.5 0 1,0 95.77,22.95" fill="none" stroke="#15803d" stroke-width="2" stroke-linecap="round"/>
<g transform="rotate(-24 51.06 110.72)"><path transform="translate(51.06,110.72) rotate(10)" d="M0,0 C3,-3.6 8.4,-3.4 12,0 C8.4,3.4 3,3.6 0,0Z" fill="#4ade80"/></g>
<g transform="rotate(26 46.67 109.75)"><path transform="translate(46.67,109.75) rotate(15)" d="M0,0 C3,-3.6 7,-3.4 10,0 C7,3.4 3,3.6 0,0Z" fill="#16a34a"/></g>
<g transform="rotate(-24 41.54 108.08)"><path transform="translate(41.54,108.08) rotate(21)" d="M0,0 C3,-3.6 8.4,-3.4 12,0 C8.4,3.4 3,3.6 0,0Z" fill="#22c55e"/></g>
<g transform="rotate(26 37.42 106.29)"><path transform="translate(37.42,106.29) rotate(26)" d="M0,0 C3,-3.6 7,-3.4 10,0 C7,3.4 3,3.6 0,0Z" fill="#86efac"/></g>
<g transform="rotate(-24 32.71 103.67)"><path transform="translate(32.71,103.67) rotate(32)" d="M0,0 C3,-3.6 8.4,-3.4 12,0 C8.4,3.4 3,3.6 0,0Z" fill="#16a34a"/></g>
<g transform="rotate(26 29.01 101.13)"><path transform="translate(29.01,101.13) rotate(37)" d="M0,0 C3,-3.6 7,-3.4 10,0 C7,3.4 3,3.6 0,0Z" fill="#4ade80"/></g>
<g transform="rotate(-24 24.88 97.66)"><path transform="translate(24.88,97.66) rotate(43)" d="M0,0 C3,-3.6 8.4,-3.4 12,0 C8.4,3.4 3,3.6 0,0Z" fill="#86efac"/></g>
<g transform="rotate(26 21.73 94.46)"><path transform="translate(21.73,94.46) rotate(48)" d="M0,0 C3,-3.6 7,-3.4 10,0 C7,3.4 3,3.6 0,0Z" fill="#22c55e"/></g>
<g transform="rotate(-24 18.34 90.27)"><path transform="translate(18.34,90.27) rotate(54)" d="M0,0 C3,-3.6 8.4,-3.4 12,0 C8.4,3.4 3,3.6 0,0Z" fill="#4ade80"/></g>
<g transform="rotate(26 15.86 86.52)"><path transform="translate(15.86,86.52) rotate(59)" d="M0,0 C3,-3.6 7,-3.4 10,0 C7,3.4 3,3.6 0,0Z" fill="#16a34a"/></g>
<g transform="rotate(-24 13.33 81.76)"><path transform="translate(13.33,81.76) rotate(65)" d="M0,0 C3,-3.6 8.4,-3.4 12,0 C8.4,3.4 3,3.6 0,0Z" fill="#22c55e"/></g>
<g transform="rotate(26 11.61 77.61)"><path transform="translate(11.61,77.61) rotate(70)" d="M0,0 C3,-3.6 7,-3.4 10,0 C7,3.4 3,3.6 0,0Z" fill="#86efac"/></g>
<g transform="rotate(-24 10.03 72.46)"><path transform="translate(10.03,72.46) rotate(76)" d="M0,0 C3,-3.6 8.4,-3.4 12,0 C8.4,3.4 3,3.6 0,0Z" fill="#16a34a"/></g>
<g transform="rotate(26 9.13 68.06)"><path transform="translate(9.13,68.06) rotate(81)" d="M0,0 C3,-3.6 7,-3.4 10,0 C7,3.4 3,3.6 0,0Z" fill="#4ade80"/></g>
<g transform="rotate(-24 8.57 62.7)"><path transform="translate(8.57,62.7) rotate(87)" d="M0,0 C3,-3.6 8.4,-3.4 12,0 C8.4,3.4 3,3.6 0,0Z" fill="#86efac"/></g>
<g transform="rotate(26 8.53 58.2)"><path transform="translate(8.53,58.2) rotate(92)" d="M0,0 C3,-3.6 7,-3.4 10,0 C7,3.4 3,3.6 0,0Z" fill="#22c55e"/></g>
<g transform="rotate(-24 9 52.83)"><path transform="translate(9,52.83) rotate(98)" d="M0,0 C3,-3.6 8.4,-3.4 12,0 C8.4,3.4 3,3.6 0,0Z" fill="#4ade80"/></g>
<g transform="rotate(26 9.82 48.42)"><path transform="translate(9.82,48.42) rotate(103)" d="M0,0 C3,-3.6 7,-3.4 10,0 C7,3.4 3,3.6 0,0Z" fill="#16a34a"/></g>
<g transform="rotate(-24 11.31 43.23)"><path transform="translate(11.31,43.23) rotate(109)" d="M0,0 C3,-3.6 8.4,-3.4 12,0 C8.4,3.4 3,3.6 0,0Z" fill="#22c55e"/></g>
<g transform="rotate(26 12.95 39.05)"><path transform="translate(12.95,39.05) rotate(114)" d="M0,0 C3,-3.6 7,-3.4 10,0 C7,3.4 3,3.6 0,0Z" fill="#86efac"/></g>
<g transform="rotate(-24 15.4 34.25)"><path transform="translate(15.4,34.25) rotate(120)" d="M0,0 C3,-3.6 8.4,-3.4 12,0 C8.4,3.4 3,3.6 0,0Z" fill="#16a34a"/></g>
<g transform="rotate(26 17.81 30.46)"><path transform="translate(17.81,30.46) rotate(125)" d="M0,0 C3,-3.6 7,-3.4 10,0 C7,3.4 3,3.6 0,0Z" fill="#4ade80"/></g>
<g transform="rotate(-24 21.13 26.21)"><path transform="translate(21.13,26.21) rotate(131)" d="M0,0 C3,-3.6 8.4,-3.4 12,0 C8.4,3.4 3,3.6 0,0Z" fill="#86efac"/></g>
<g transform="rotate(26 24.23 22.95)"><path transform="translate(24.23,22.95) rotate(136)" d="M0,0 C3,-3.6 7,-3.4 10,0 C7,3.4 3,3.6 0,0Z" fill="#22c55e"/></g>
<g transform="rotate(24 68.94 110.72)"><path transform="translate(68.94,110.72) rotate(170)" d="M0,0 C3,-3.6 8.4,-3.4 12,0 C8.4,3.4 3,3.6 0,0Z" fill="#4ade80"/></g>
<g transform="rotate(-26 73.33 109.75)"><path transform="translate(73.33,109.75) rotate(165)" d="M0,0 C3,-3.6 7,-3.4 10,0 C7,3.4 3,3.6 0,0Z" fill="#16a34a"/></g>
<g transform="rotate(24 78.46 108.08)"><path transform="translate(78.46,108.08) rotate(159)" d="M0,0 C3,-3.6 8.4,-3.4 12,0 C8.4,3.4 3,3.6 0,0Z" fill="#22c55e"/></g>
<g transform="rotate(-26 82.58 106.29)"><path transform="translate(82.58,106.29) rotate(154)" d="M0,0 C3,-3.6 7,-3.4 10,0 C7,3.4 3,3.6 0,0Z" fill="#86efac"/></g>
<g transform="rotate(24 87.29 103.67)"><path transform="translate(87.29,103.67) rotate(148)" d="M0,0 C3,-3.6 8.4,-3.4 12,0 C8.4,3.4 3,3.6 0,0Z" fill="#16a34a"/></g>
<g transform="rotate(-26 90.99 101.13)"><path transform="translate(90.99,101.13) rotate(143)" d="M0,0 C3,-3.6 7,-3.4 10,0 C7,3.4 3,3.6 0,0Z" fill="#4ade80"/></g>
<g transform="rotate(24 95.12 97.66)"><path transform="translate(95.12,97.66) rotate(137)" d="M0,0 C3,-3.6 8.4,-3.4 12,0 C8.4,3.4 3,3.6 0,0Z" fill="#86efac"/></g>
<g transform="rotate(-26 98.27 94.46)"><path transform="translate(98.27,94.46) rotate(132)" d="M0,0 C3,-3.6 7,-3.4 10,0 C7,3.4 3,3.6 0,0Z" fill="#22c55e"/></g>
<g transform="rotate(24 101.66 90.27)"><path transform="translate(101.66,90.27) rotate(126)" d="M0,0 C3,-3.6 8.4,-3.4 12,0 C8.4,3.4 3,3.6 0,0Z" fill="#4ade80"/></g>
<g transform="rotate(-26 104.14 86.52)"><path transform="translate(104.14,86.52) rotate(121)" d="M0,0 C3,-3.6 7,-3.4 10,0 C7,3.4 3,3.6 0,0Z" fill="#16a34a"/></g>
<g transform="rotate(24 106.67 81.76)"><path transform="translate(106.67,81.76) rotate(115)" d="M0,0 C3,-3.6 8.4,-3.4 12,0 C8.4,3.4 3,3.6 0,0Z" fill="#22c55e"/></g>
<g transform="rotate(-26 108.39 77.61)"><path transform="translate(108.39,77.61) rotate(110)" d="M0,0 C3,-3.6 7,-3.4 10,0 C7,3.4 3,3.6 0,0Z" fill="#86efac"/></g>
<g transform="rotate(24 109.97 72.46)"><path transform="translate(109.97,72.46) rotate(104)" d="M0,0 C3,-3.6 8.4,-3.4 12,0 C8.4,3.4 3,3.6 0,0Z" fill="#16a34a"/></g>
<g transform="rotate(-26 110.87 68.06)"><path transform="translate(110.87,68.06) rotate(99)" d="M0,0 C3,-3.6 7,-3.4 10,0 C7,3.4 3,3.6 0,0Z" fill="#4ade80"/></g>
<g transform="rotate(24 111.43 62.7)"><path transform="translate(111.43,62.7) rotate(93)" d="M0,0 C3,-3.6 8.4,-3.4 12,0 C8.4,3.4 3,3.6 0,0Z" fill="#86efac"/></g>
<g transform="rotate(-26 111.47 58.2)"><path transform="translate(111.47,58.2) rotate(88)" d="M0,0 C3,-3.6 7,-3.4 10,0 C7,3.4 3,3.6 0,0Z" fill="#22c55e"/></g>
<g transform="rotate(24 111 52.83)"><path transform="translate(111,52.83) rotate(82)" d="M0,0 C3,-3.6 8.4,-3.4 12,0 C8.4,3.4 3,3.6 0,0Z" fill="#4ade80"/></g>
<g transform="rotate(-26 110.18 48.42)"><path transform="translate(110.18,48.42) rotate(77)" d="M0,0 C3,-3.6 7,-3.4 10,0 C7,3.4 3,3.6 0,0Z" fill="#16a34a"/></g>
<g transform="rotate(24 108.69 43.23)"><path transform="translate(108.69,43.23) rotate(71)" d="M0,0 C3,-3.6 8.4,-3.4 12,0 C8.4,3.4 3,3.6 0,0Z" fill="#22c55e"/></g>
<g transform="rotate(-26 107.05 39.05)"><path transform="translate(107.05,39.05) rotate(66)" d="M0,0 C3,-3.6 7,-3.4 10,0 C7,3.4 3,3.6 0,0Z" fill="#86efac"/></g>
<g transform="rotate(24 104.6 34.25)"><path transform="translate(104.6,34.25) rotate(60)" d="M0,0 C3,-3.6 8.4,-3.4 12,0 C8.4,3.4 3,3.6 0,0Z" fill="#16a34a"/></g>
<g transform="rotate(-26 102.19 30.46)"><path transform="translate(102.19,30.46) rotate(55)" d="M0,0 C3,-3.6 7,-3.4 10,0 C7,3.4 3,3.6 0,0Z" fill="#4ade80"/></g>
<g transform="rotate(24 98.87 26.21)"><path transform="translate(98.87,26.21) rotate(49)" d="M0,0 C3,-3.6 8.4,-3.4 12,0 C8.4,3.4 3,3.6 0,0Z" fill="#86efac"/></g>
<g transform="rotate(-26 95.77 22.95)"><path transform="translate(95.77,22.95) rotate(44)" d="M0,0 C3,-3.6 7,-3.4 10,0 C7,3.4 3,3.6 0,0Z" fill="#22c55e"/></g>
<circle cx="56" cy="113" r="3" fill="#ef4444" stroke="#991b1b" stroke-width="0.8"/>
<circle cx="63" cy="115" r="2.6" fill="#f87171" stroke="#991b1b" stroke-width="0.8"/>
<circle cx="60" cy="109" r="2.2" fill="#dc2626" stroke="#991b1b" stroke-width="0.8"/>
</svg>
